<svg viewBox="0 0 24 24" xmlns="http://www.w3.org/2000/svg" width="300" height="300" version="1.1" xmlns:xlink="http://www.w3.org/1999/xlink" xmlns:svgjs="http://svgjs.dev/svgjs"><g width="100%" height="100%" transform="matrix(1,0,0,1,0,0)"><g id="Double_arrow_up_right" fill="rgb(0,0,0)" data-name="Double arrow up right"><path d="m21 22h-18a1 1 0 0 1 -1-1v-18a1 1 0 0 1 1-1h18a1 1 0 0 1 1 1v18a1 1 0 0 1 -1 1zm-17-2h16v-16h-16z" fill="#ffffff" fill-opacity="1" data-original-color="#000000ff" stroke="none" stroke-opacity="1"/><path d="m16 14a1 1 0 0 1 -1-1v-4h-4a1 1 0 0 1 0-2h5a1 1 0 0 1 1 1v5a1 1 0 0 1 -1 1z" fill="#ffffff" fill-opacity="1" data-original-color="#000000ff" stroke="none" stroke-opacity="1"/><path d="m13 17a1 1 0 0 1 -1-1v-4h-4a1 1 0 0 1 0-2h5a1 1 0 0 1 1 1v5a1 1 0 0 1 -1 1z" fill="#ffffff" fill-opacity="1" data-original-color="#000000ff" stroke="none" stroke-opacity="1"/></g></g></svg>